<svg xmlns="http://www.w3.org/2000/svg" width="200" height="43.0872" viewBox="0 0 200 43.0872"><defs><style>.a{fill:#283470;}.b{fill:#f4511e;}</style></defs><title>stalkmet-logo</title><path class="a" d="M380,301.109h1.1207v7.8441H380Z" transform="translate(-380 -267.5244)"/><path class="a" d="M384.7066,302.084v2.7341H388.64v.9637h-3.9331v3.1713h-1.1208V301.109h5.5357v.975Z" transform="translate(-380 -267.5244)"/><path class="a" d="M396.943,306.2414v2.7117h-1.1095v-2.7342l-3.1152-5.11h1.1992l2.51,4.135,2.5211-4.135h1.1094Z" transform="translate(-380 -267.5244)"/><path class="a" d="M402.3666,308.5218a3.8543,3.8543,0,0,1-1.496-1.44,4.14,4.14,0,0,1,0-4.1015,3.8543,3.8543,0,0,1,1.496-1.44,4.6332,4.6332,0,0,1,4.2695,0,3.8263,3.8263,0,0,1,1.49,1.4346,4.1975,4.1975,0,0,1,0,4.1123,3.8263,3.8263,0,0,1-1.49,1.4346,4.6332,4.6332,0,0,1-4.2695,0Zm3.6924-.8687a2.8788,2.8788,0,0,0,1.0869-1.0811,3.1833,3.1833,0,0,0,0-3.0818,2.8813,2.8813,0,0,0-1.0869-1.0815,3.0841,3.0841,0,0,0-1.552-.392,3.1446,3.1446,0,0,0-1.5633.392,2.8572,2.8572,0,0,0-1.0982,1.0815,3.1833,3.1833,0,0,0,0,3.0818,2.8548,2.8548,0,0,0,1.0982,1.0811,3.1417,3.1417,0,0,0,1.5633.3923A3.0812,3.0812,0,0,0,406.059,307.6531Z" transform="translate(-380 -267.5244)"/><path class="a" d="M411.2975,308.1462a3.5425,3.5425,0,0,1-.8738-2.5772v-4.46h1.12v4.415q0,2.5215,2.2076,2.5214a2.1259,2.1259,0,0,0,1.6473-.6218,2.7309,2.7309,0,0,0,.5713-1.9v-4.415h1.0872v4.46a3.54,3.54,0,0,1-.8741,2.583,3.7855,3.7855,0,0,1-4.8859-.0058Z" transform="translate(-380 -267.5244)"/><path class="a" d="M433.6754,301.109l-2.6222,7.8441h-1.1767l-2.14-6.264-2.14,6.264h-1.1992l-2.6222-7.8441h1.1542l2.1181,6.3761,2.2073-6.3761h1.0309l2.1629,6.41,2.1626-6.41Z" transform="translate(-380 -267.5244)"/><path class="a" d="M439.9059,306.992h-4.1687l-.8629,1.9611H433.72l3.5524-7.8441h1.1094l3.5633,7.8441h-1.1764Zm-.3923-.8964-1.692-3.8436-1.692,3.8436Z" transform="translate(-380 -267.5244)"/><path class="a" d="M449.9688,301.109v7.8441H449.05l-4.7065-5.85v5.85h-1.1207V301.109h.9189l4.7065,5.85v-5.85Z" transform="translate(-380 -267.5244)"/><path class="a" d="M453.9914,302.084h-2.6891v-.975h6.488v.975h-2.6894v6.8691h-1.11Z" transform="translate(-380 -267.5244)"/><path class="a" d="M462.25,301.109h1.1207v7.8441H462.25Z" transform="translate(-380 -267.5244)"/><path class="a" d="M467.3936,302.084h-2.6894v-.975h6.488v.975h-2.6891v6.8691h-1.11Z" transform="translate(-380 -267.5244)"/><path class="a" d="M472.8,307.7036a.76.76,0,0,1,.2073.5436,1.3362,1.3362,0,0,1-.0393.3248q-.0392.1573-.1513.4818l-.5265,1.5578h-.7062l.4149-1.67a.7.7,0,0,1-.3418-.2633.7351.7351,0,0,1-.1291-.4313.7429.7429,0,0,1,.2131-.5491.7291.7291,0,0,1,.5378-.213A.6879.6879,0,0,1,472.8,307.7036Z" transform="translate(-380 -267.5244)"/><path class="b" d="M480.9525,306.2414v2.7117h-1.1091v-2.7342l-3.1156-5.11h1.1989l2.51,4.135,2.5215-4.135h1.1091Z" transform="translate(-380 -267.5244)"/><path class="b" d="M486.3762,308.5218a3.8523,3.8523,0,0,1-1.496-1.44,4.14,4.14,0,0,1,0-4.1015,3.8523,3.8523,0,0,1,1.496-1.44,4.633,4.633,0,0,1,4.2694,0,3.8256,3.8256,0,0,1,1.49,1.4346,4.1988,4.1988,0,0,1,0,4.1123,3.8256,3.8256,0,0,1-1.49,1.4346,4.633,4.633,0,0,1-4.2694,0Zm3.6923-.8687a2.88,2.88,0,0,0,1.087-1.0811,3.1833,3.1833,0,0,0,0-3.0818,2.8822,2.8822,0,0,0-1.087-1.0815,3.0839,3.0839,0,0,0-1.552-.392,3.1445,3.1445,0,0,0-1.5632.392,2.8552,2.8552,0,0,0-1.0982,1.0815,3.1833,3.1833,0,0,0,0,3.0818,2.8528,2.8528,0,0,0,1.0982,1.0811,3.1416,3.1416,0,0,0,1.5632.3923A3.081,3.081,0,0,0,490.0685,307.6531Z" transform="translate(-380 -267.5244)"/><path class="b" d="M495.3068,308.1462a3.5421,3.5421,0,0,1-.8739-2.5772v-4.46h1.12v4.415q0,2.5215,2.2077,2.5214a2.1257,2.1257,0,0,0,1.6472-.6218,2.731,2.731,0,0,0,.5716-1.9v-4.415h1.087v4.46a3.5381,3.5381,0,0,1-.8742,2.583,3.7853,3.7853,0,0,1-4.8858-.0058Z" transform="translate(-380 -267.5244)"/><path class="b" d="M507.9861,308.5218a3.8356,3.8356,0,0,1-1.4848-1.4346,4.1995,4.1995,0,0,1,0-4.1123,3.8247,3.8247,0,0,1,1.4906-1.4346,4.3636,4.3636,0,0,1,2.1291-.5211,4.4437,4.4437,0,0,1,1.6807.3084,3.4408,3.4408,0,0,1,1.3.9131l-.7284.7062a2.9219,2.9219,0,0,0-2.2076-.93,3.2,3.2,0,0,0-1.58.392,2.8451,2.8451,0,0,0-1.1037,1.0815,3.1833,3.1833,0,0,0,0,3.0818,2.8428,2.8428,0,0,0,1.1037,1.0811,3.1966,3.1966,0,0,0,1.58.3923,2.9282,2.9282,0,0,0,2.2076-.9414l.7284.7061a3.4894,3.4894,0,0,1-1.3055.9189,4.4141,4.4141,0,0,1-1.6865.3139A4.3324,4.3324,0,0,1,507.9861,308.5218Z" transform="translate(-380 -267.5244)"/><path class="b" d="M519.6235,306.992h-4.1687l-.8629,1.9611h-1.1542l3.5524-7.8441H518.1l3.5633,7.8441h-1.1767Zm-.3923-.8964-1.692-3.8436-1.6921,3.8436Z" transform="translate(-380 -267.5244)"/><path class="b" d="M529.6861,301.109v7.8441h-.9189l-4.7065-5.85v5.85h-1.12V301.109h.9189l4.7062,5.85v-5.85Z" transform="translate(-380 -267.5244)"/><path class="b" d="M542.0236,301.109v7.8441h-1.1207v-3.4964h-4.5048v3.4964h-1.12V301.109h1.12v3.3728h4.5048V301.109Z" transform="translate(-380 -267.5244)"/><path class="b" d="M549.4868,306.992h-4.1687l-.8629,1.9611H543.301l3.5524-7.8441h1.1094l3.5633,7.8441h-1.1767Zm-.3923-.8964-1.692-3.8436-1.692,3.8436Z" transform="translate(-380 -267.5244)"/><path class="b" d="M559.2021,301.109l-3.44,7.8441h-1.1091l-3.4517-7.8441h1.21l2.824,6.4433,2.8462-6.4433Z" transform="translate(-380 -267.5244)"/><path class="b" d="M566.004,307.9782v.9749h-5.6924V301.109h5.5356v.975H561.432v2.4091h3.9334v.9527H561.432v2.5324Z" transform="translate(-380 -267.5244)"/><path class="b" d="M571.0578,301.109h1.12v7.8441h-1.12Z" transform="translate(-380 -267.5244)"/><path class="b" d="M576.2011,302.084h-2.6895v-.975H580v.975h-2.6895v6.8691h-1.1094Z" transform="translate(-380 -267.5244)"/><path class="a" d="M414.4406,290.94a9.628,9.628,0,0,1-3.5257-1.8l1.3276-2.98a10.45,10.45,0,0,0,3.1128,1.6376,11.3048,11.3048,0,0,0,3.7026.6343,6.3969,6.3969,0,0,0,3.4371-.7377,2.2343,2.2343,0,0,0,1.136-1.9472,1.8858,1.8858,0,0,0-.6344-1.46,4.4612,4.4612,0,0,0-1.6079-.9q-.9736-.3242-2.6553-.7375a30.8279,30.8279,0,0,1-3.8208-1.1212,6.2813,6.2813,0,0,1-2.5077-1.7555,4.727,4.727,0,0,1-1.0474-3.2305,5.512,5.512,0,0,1,.9293-3.1128,6.2893,6.2893,0,0,1,2.8029-2.2275,11.361,11.361,0,0,1,4.5879-.8261,14.8412,14.8412,0,0,1,3.7174.472,10.2821,10.2821,0,0,1,3.1568,1.3572l-1.21,2.98a11.9549,11.9549,0,0,0-2.8322-1.2095,10.6044,10.6044,0,0,0-2.862-.4132,5.979,5.979,0,0,0-3.3781.7672,2.3671,2.3671,0,0,0-1.1064,2.0357,1.8393,1.8393,0,0,0,.6344,1.4458,4.5765,4.5765,0,0,0,1.608.885q.9736.3252,2.6552.7377a27.969,27.969,0,0,1,3.7765,1.1063,6.4734,6.4734,0,0,1,2.5226,1.7555,4.6284,4.6284,0,0,1,1.0474,3.1865,5.4418,5.4418,0,0,1-.9294,3.098,6.32,6.32,0,0,1-2.8176,2.2127,11.4668,11.4668,0,0,1-4.6026.8258A15.7644,15.7644,0,0,1,414.4406,290.94Z" transform="translate(-380 -267.5244)"/><path class="a" d="M436.2883,273.9163h-6.8449v-3.2455h17.5253v3.2455h-6.845v17.4073h-3.8354Z" transform="translate(-380 -267.5244)"/><path class="a" d="M463.4021,286.5439H453.0757l-2.0357,4.78h-3.9535l9.2937-20.6528h3.7765l9.3232,20.6528h-4.0126Zm-1.2687-3.01-3.8945-9.0281-3.8649,9.0281Z" transform="translate(-380 -267.5244)"/><path class="a" d="M473.2857,270.6708h3.8354v17.4074H487.92v3.2454H473.2857Z" transform="translate(-380 -267.5244)"/><path class="a" d="M499.2492,282.6789l-3.2752,3.3634v5.2813h-3.8354V270.6708h3.8354v10.592l10.2084-10.592H510.49l-8.6741,9.2347,9.2051,11.4181h-4.4843Z" transform="translate(-380 -267.5244)"/><path class="a" d="M533.7978,291.3236l-.03-13.69-6.7858,11.3294h-1.7111l-6.7858-11.1524v13.5128h-3.6586V270.6708h3.157l8.2019,13.69,8.0546-13.69h3.157l.0294,20.6528Z" transform="translate(-380 -267.5244)"/><path class="a" d="M559.672,288.1077v3.2159h-15.49V270.6708h15.0764v3.216h-11.241v5.37H557.99v3.1568h-9.9723v5.6944Z" transform="translate(-380 -267.5244)"/><path class="a" d="M569.32,273.9163h-6.845v-3.2455H580v3.2455h-6.8448v17.4073H569.32Z" transform="translate(-380 -267.5244)"/><path class="b" d="M380,286.2774v5.5337h16.4474a3.77,3.77,0,0,0,3.8428-3.6123V275.8249h-9.9914l4.4577,3.1082v7.3443Z" transform="translate(-380 -267.5244)"/><path class="a" d="M403.3645,273.058v-5.5336H386.9171a3.77,3.77,0,0,0-3.8428,3.6122v12.374h9.9914l-4.4577-3.1082V273.058Z" transform="translate(-380 -267.5244)"/></svg>